<?xml version="1.0" standalone="no"?>
<!DOCTYPE svg PUBLIC "-//W3C//DTD SVG 20010904//EN"
 "http://www.w3.org/TR/2001/REC-SVG-20010904/DTD/svg10.dtd">
<svg version="1.0" xmlns="http://www.w3.org/2000/svg"
 width="414.000000pt" height="414.000000pt" viewBox="0 0 414.000000 414.000000"
 preserveAspectRatio="xMidYMid meet">
<metadata>
Created by potrace 1.14, written by Peter Selinger 2001-2017
</metadata>
<g transform="translate(0.000000,414.000000) scale(0.100000,-0.100000)"
fill="#000000" stroke="none">
<path d="M3262 3274 c-11 -55 -49 -173 -97 -304 -23 -63 -147 -300 -157 -300
-4 0 -8 -5 -8 -10 0 -28 -150 -222 -259 -335 -290 -300 -587 -478 -1101 -660
-112 -40 -381 -167 -441 -208 -20 -14 -57 -37 -82 -52 -135 -78 -341 -253
-482 -406 -169 -185 -338 -447 -423 -658 -30 -74 -28 -81 12 -30 82 108 256
225 432 292 75 29 190 64 239 73 17 3 50 10 75 15 25 6 68 12 95 15 28 3 61 8
75 11 43 9 471 11 555 2 44 -4 100 -10 125 -13 55 -6 188 -24 215 -30 11 -2
40 -7 65 -11 25 -4 54 -9 65 -11 135 -27 439 -38 570 -21 149 20 367 93 476
159 25 15 51 28 58 28 6 0 11 4 11 8 0 4 14 16 30 26 79 46 205 165 298 281
32 39 59 72 62 75 30 27 167 281 211 392 51 127 129 387 129 431 0 4 -29 -21
-63 -56 -66 -66 -207 -176 -258 -203 l-30 -15 14 28 c21 41 82 225 111 333 32
125 63 281 71 360 2 14 6 51 10 83 4 31 5 57 2 57 -3 0 -18 -21 -33 -47 -63
-109 -211 -280 -339 -393 -112 -100 -377 -281 -391 -267 -2 2 12 43 32 92 35
87 96 296 107 365 3 19 8 44 10 55 2 11 8 47 12 80 4 32 9 67 10 77 24 121 27
641 5 728 -5 20 -9 13 -18 -36z"/>
</g>
</svg>
